<svg width="337" height="393" viewBox="0 0 337 393" fill="none" xmlns="http://www.w3.org/2000/svg">
<path d="M264.5 38.5C262.487 21.6679 265.768 6.35605 270.973 -6.27768C276.173 -18.8985 267.321 -38 253.671 -38H-57.8291C-66.1798 -38 -72.9227 -31.1802 -72.8281 -22.8301L-67.6723 432.292C-67.5775 440.657 -60.6585 447.328 -52.2956 447.117L262.264 439.195C267.117 439.073 271.659 436.617 275.198 433.293C283.77 425.242 299.938 413.085 318.5 394C354 357.5 332.762 299.793 285.5 275C255 259 207 210 230.5 168C274.549 89.2745 270 84.5 264.5 38.5Z" fill="url(#paint0_linear_1_7)"/>
<defs>
<linearGradient id="paint0_linear_1_7" x1="-24" y1="205" x2="355" y2="205" gradientUnits="userSpaceOnUse">
<stop stop-color="#51F8B2"/>
<stop offset="1" stop-color="#4EB5EE"/>
</linearGradient>
</defs>
</svg>
